<?xml version="1.0" encoding="UTF-8" standalone="no"?>
<!DOCTYPE svg PUBLIC "-//W3C//DTD SVG 1.1//EN" "http://www.w3.org/Graphics/SVG/1.1/DTD/svg11.dtd">
<svg width="100%" height="100%" viewBox="0 0 512 512" version="1.1" xmlns="http://www.w3.org/2000/svg" xmlns:xlink="http://www.w3.org/1999/xlink" xml:space="preserve" xmlns:serif="http://www.serif.com/" style="fill-rule:evenodd;clip-rule:evenodd;stroke-linejoin:round;stroke-miterlimit:2;">
    <g id="レイヤー1" transform="matrix(0.829876,0,0,0.829876,2.55187,84.5519)">
        <g transform="matrix(1.30253,0,0,0.957821,-134.864,-229.361)">
            <path d="M341.711,236.258C341.711,215.424 329.273,198.509 313.952,198.509L128.938,198.509C113.618,198.509 101.179,215.424 101.179,236.258C101.179,257.093 113.618,274.008 128.938,274.008L313.952,274.008C329.273,274.008 341.711,257.093 341.711,236.258Z" style="fill:rgb(75,75,75);"/>
        </g>
        <g transform="matrix(2.30447,0,0,0.957821,-236.239,252.625)">
            <path d="M341.711,236.258C341.711,215.424 334.681,198.509 326.021,198.509L116.869,198.509C108.21,198.509 101.179,215.424 101.179,236.258C101.179,257.093 108.21,274.008 116.869,274.008L326.021,274.008C334.681,274.008 341.711,257.093 341.711,236.258Z" style="fill:rgb(75,75,75);"/>
        </g>
        <g transform="matrix(1.41108e-16,-2.30447,0.957821,5.86496e-17,-193.211,748.239)">
            <path d="M341.711,236.258C341.711,215.424 334.681,198.509 326.021,198.509L116.869,198.509C108.21,198.509 101.179,215.424 101.179,236.258C101.179,257.093 108.21,274.008 116.869,274.008L326.021,274.008C334.681,274.008 341.711,257.093 341.711,236.258Z" style="fill:rgb(75,75,75);"/>
        </g>
        <g transform="matrix(7.97568e-17,1.30253,-0.957821,5.86496e-17,741.361,69.9865)">
            <path d="M341.711,236.258C341.711,215.424 329.273,198.509 313.952,198.509L128.938,198.509C113.618,198.509 101.179,215.424 101.179,236.258C101.179,257.093 113.618,274.008 128.938,274.008L313.952,274.008C329.273,274.008 341.711,257.093 341.711,236.258Z" style="fill:rgb(75,75,75);"/>
        </g>
        <g transform="matrix(1.205,0,0,1.205,-1.92567,-102.295)">
            <path d="M408.599,60.353L373.045,60.353C356.484,60.353 343.039,46.907 343.039,30.346C343.039,13.786 356.484,0.34 373.045,0.34L481.04,0.34C489.321,0.34 496.822,3.702 502.253,9.133C507.685,14.565 511.046,22.066 511.046,30.346L511.046,138.342C511.046,154.902 497.601,168.348 481.04,168.348C464.479,168.348 451.034,154.902 451.034,138.342L451.034,102.787L292.601,261.22C280.891,272.931 261.876,272.931 250.166,261.22C238.456,249.51 238.456,230.496 250.166,218.786L408.599,60.353Z" style="fill:rgb(75,75,75);"/>
        </g>
    </g>
</svg>
